<?xml version="1.0" standalone="no"?>
<!DOCTYPE svg PUBLIC "-//W3C//DTD SVG 20010904//EN"
 "http://www.w3.org/TR/2001/REC-SVG-20010904/DTD/svg10.dtd">
<svg version="1.0" xmlns="http://www.w3.org/2000/svg"
 width="512.000000pt" height="512.000000pt" viewBox="0 0 512.000000 512.000000"
 preserveAspectRatio="xMidYMid meet">

<g transform="translate(0.000000,512.000000) scale(0.100000,-0.100000)"
fill="#000000" stroke="none">
<path d="M2475 4507 c-68 -23 -101 -44 -148 -97 -75 -84 -80 -105 -85 -422 -4
-318 5 -427 48 -577 26 -88 30 -121 30 -217 l0 -114 -799 0 c-531 0 -808 -4
-828 -10 -28 -10 -53 -45 -53 -74 0 -7 9 -25 21 -40 l20 -26 820 0 819 0 0
-280 0 -281 -32 6 c-18 3 -91 16 -163 28 l-130 23 -5 146 c-6 164 -11 178 -70
178 -65 0 -74 -21 -78 -171 -3 -116 -5 -129 -20 -125 -9 3 -47 10 -84 17 l-68
11 0 112 c0 134 -10 156 -70 156 -30 0 -43 -6 -59 -26 -18 -23 -21 -41 -21
-120 0 -52 -3 -94 -6 -94 -6 0 -565 96 -999 171 -93 16 -214 37 -267 46 l-98
16 0 94 0 93 140 0 c130 0 141 1 160 22 25 28 26 72 1 97 -28 28 -72 34 -213
29 -137 -4 -170 -15 -210 -70 -21 -31 -23 -42 -23 -175 0 -157 7 -177 74 -216
22 -13 351 -74 1127 -208 603 -104 1100 -189 1105 -189 5 0 9 -168 9 -375 l0
-375 -384 0 c-381 0 -383 0 -416 -23 -57 -38 -72 -68 -78 -151 -6 -94 14 -154
63 -192 31 -23 73 -31 504 -97 l471 -72 0 -92 0 -93 -169 0 c-93 0 -177 -3
-186 -6 -8 -4 -22 -19 -30 -34 -19 -36 -4 -83 31 -99 35 -16 833 -16 868 0 34
16 47 57 31 96 -7 16 -20 33 -30 37 -9 3 -93 6 -186 6 l-169 0 0 95 c0 93 1
95 23 95 13 0 225 31 470 69 410 63 450 71 481 95 50 38 70 98 64 192 -6 83
-21 113 -78 151 -33 23 -35 23 -415 23 l-383 0 -4 101 c-3 91 -6 103 -27 120
-28 23 -70 25 -97 5 -16 -12 -20 -30 -24 -118 l-5 -103 -85 0 -85 0 -5 945 -5
945 -35 105 -34 105 0 325 c-1 179 2 337 7 352 11 41 63 95 103 108 76 25 162
-11 202 -84 15 -28 17 -68 16 -366 l0 -335 -34 -105 -34 -105 -4 -721 c-3
-715 -2 -720 18 -739 28 -25 76 -23 103 4 20 20 22 33 25 166 3 88 8 145 14
145 5 0 337 56 736 125 400 69 831 144 957 165 555 96 544 93 589 153 19 26
21 42 21 170 0 133 -2 144 -23 175 -52 72 37 67 -1189 70 l-1103 2 0 114 c0
96 4 129 30 217 43 150 52 259 48 577 -4 233 -7 285 -22 325 -25 67 -103 149
-168 177 -64 27 -158 35 -213 17z m2495 -1672 c0 -56 -4 -95 -10 -95 -5 0
-310 -52 -676 -115 -366 -63 -670 -115 -675 -115 -5 0 -9 42 -9 94 0 79 -3 97
-21 120 -16 20 -29 26 -59 26 -60 0 -70 -22 -70 -156 l0 -112 -67 -12 c-38 -6
-76 -14 -85 -16 -15 -4 -17 9 -20 125 -4 150 -13 171 -78 171 -59 0 -64 -14
-70 -179 l-5 -146 -125 -22 c-69 -11 -142 -24 -162 -27 l-38 -6 0 280 0 280
1085 0 1085 0 0 -95z m-2490 -1630 c0 -97 -2 -115 -15 -115 -9 0 -205 29 -437
65 -232 36 -425 65 -430 65 -4 0 -8 23 -8 50 l0 50 445 0 445 0 0 -115z m1050
65 c0 -27 -3 -50 -7 -50 -5 0 -197 -29 -428 -65 -231 -36 -428 -65 -437 -65
-16 0 -18 12 -18 115 l0 115 445 0 445 0 0 -50z"/>
</g>
</svg>
