<svg aria-hidden="true" style="position: absolute; width: 0; height: 0; overflow: hidden;" version="1.1" xmlns="http://www.w3.org/2000/svg" xmlns:xlink="http://www.w3.org/1999/xlink">
<defs>
<symbol id="icon-plane" viewBox="0 0 32 32">
<path d="M19.188 13.456c2.33 1.449 4.491 2.794 6.869 4.273 0.456-0.323 1.218-0.86 1.977-1.401 0.993-0.708 2.153-0.68 2.912 0.224 0.209 0.249 0.152 0.936-0.042 1.272-1.407 2.434-2.875 4.833-4.34 7.233-0.281 0.46-0.538 1.145-1.257 0.802-0.724-0.344-1.707-0.565-1.653-1.664 0.053-1.080 0.207-2.155 0.292-2.983-2.417-1.175-4.734-2.302-7.114-3.459-0.96 1.043-1.322 2.406-1.639 3.807-0.533 2.358-1.097 4.709-1.672 7.058-0.332 1.354-0.739 1.55-2.029 1.063-1.67-0.63-1.843-0.872-1.859-2.694-0.036-4.049-0.090-8.098-0.079-12.147 0.003-0.942-0.248-1.516-1.142-1.956-1.795-0.884-3.569-1.832-5.257-2.904-0.83-0.527-1.6-1.292-2.129-2.121-0.817-1.279-0.114-2.49 1.386-2.412 1.056 0.055 2.176 0.277 3.124 0.726 1.934 0.915 3.784 2.013 5.641 3.083 0.519 0.299 0.895 0.296 1.422 0.004 3.84-2.133 7.701-4.225 11.554-6.335 1.527-0.836 2.767-0.614 3.879 0.713 0.612 0.73 0.133 1.235-0.386 1.697-2.131 1.894-4.301 3.746-6.393 5.681-0.778 0.719-1.383 1.623-2.065 2.441z"></path>
</symbol>
</defs>
</svg>
